<svg width="38" height="105" viewBox="0 0 38 105" fill="none" xmlns="http://www.w3.org/2000/svg">
<path opacity="0.2" d="M18.9998 50L16.4998 50L16.4998 50L18.9998 50ZM17.2322 104.268C18.2085 105.244 19.7915 105.244 20.7678 104.268L36.6776 88.3578C37.6539 87.3815 37.6539 85.7986 36.6776 84.8223C35.7013 83.846 34.1184 83.846 33.1421 84.8223L19 98.9645L4.85781 84.8224C3.88149 83.8461 2.29858 83.8461 1.32228 84.8224C0.345966 85.7987 0.345972 87.3816 1.32228 88.3579L17.2322 104.268ZM16.4998 -6.011e-08L16.4998 10L21.4998 10L21.4998 6.00963e-08L16.4998 -6.011e-08ZM16.4998 15L16.4998 35L21.4998 35L21.4998 15L16.4998 15ZM16.4998 40L16.4998 50L21.4998 50L21.4998 40L16.4998 40ZM16.4998 50L16.4999 60.5L21.4999 60.5L21.4998 50L16.4998 50ZM16.4999 65.75L16.4999 86.75L21.4999 86.75L21.4999 65.75L16.4999 65.75ZM16.5 92L16.5 102.5L21.5 102.5L21.5 92L16.5 92Z" fill="white"/>
</svg>
