<?xml version="1.0" encoding="UTF-8"?>
<svg width="448px" height="512px" viewBox="0 0 448 512" version="1.1" xmlns="http://www.w3.org/2000/svg" xmlns:xlink="http://www.w3.org/1999/xlink">
    <title>trash</title>
    <g id="trash" stroke="none" stroke-width="1" fill="none" fill-rule="evenodd" opacity="0.3" stroke-linecap="round" stroke-linejoin="round">
        <g id="Group-475" transform="translate(23.000000, 33.000000)" stroke="#536988" stroke-width="47.093198">
            <g id="Group">
                <polyline id="Path" points="0.784886633 89.4770762 45.2619005 89.4770762 401.07707 89.4770762"></polyline>
                <path d="M111.980718,89.4720529 L111.980718,44.995039 C111.980718,33.1991348 116.666491,21.8860928 125.007638,13.5452596 C133.348785,5.20411233 144.661514,0.518025178 156.457732,0.518025178 L245.411445,0.518025178 C257.20735,0.518025178 268.519136,5.20411233 276.860911,13.5452596 C285.202686,21.8860928 289.88689,33.1991348 289.88689,44.995039 L289.88689,89.4720529 M356.602253,89.4720529 L356.602253,400.810208 C356.602253,412.605484 351.91805,423.92041 343.576275,432.259046 C335.2345,440.600821 323.922714,445.288164 312.127437,445.288164 L89.7423679,445.288164 C77.9461497,445.288164 66.6334217,440.600821 58.2922744,432.259046 C49.9511272,423.92041 45.265354,412.605484 45.265354,400.810208 L45.265354,89.4720529 L356.602253,89.4720529 Z" id="Shape"></path>
                <line x1="156.450511" y1="200.664117" x2="156.450511" y2="334.094844" id="Path"></line>
                <line x1="245.410504" y1="200.664117" x2="245.410504" y2="334.094844" id="Path"></line>
            </g>
        </g>
    </g>
</svg>