<?xml version="1.0" encoding="UTF-8"?>
<svg width="400px" height="400px" viewBox="0 0 400 400" version="1.1" xmlns="http://www.w3.org/2000/svg" xmlns:xlink="http://www.w3.org/1999/xlink">
    <title>Artboard</title>
    <g id="Artboard" stroke="none" stroke-width="1" fill="none" fill-rule="evenodd">
        <g id="upload" transform="translate(136.000000, 128.000000)" fill="#502ACD" fill-rule="nonzero">
            <path d="M40.8,46.5 L55.35,31.95 L55.35,96.15 C55.35,101.25 59.4,105.3 64.5,105.3 C69.6,105.3 73.65,101.25 73.65,96.15 L73.65,31.8 L88.2,46.35 C90,48.15 92.25,49.05 94.65,49.05 C97.05,49.05 99.3,48.15 101.1,46.35 C104.7,42.75 104.7,37.05 101.1,33.45 L70.95,3.45 C67.35,-0.15 61.65,-0.15 58.05,3.45 L27.9,33.6 C24.3,37.2 24.3,42.9 27.9,46.5 C31.5,50.1 37.2,50.1 40.8,46.5 Z" id="Path"></path>
            <path d="M118.8,91.2 C113.7,91.2 109.65,95.25 109.65,100.35 L109.65,125.1 L19.2,125.1 L19.2,100.35 C19.2,95.25 15.15,91.2 10.05,91.2 C4.95,91.2 0.9,95.25 0.9,100.35 L0.9,134.25 C0.9,139.35 4.95,143.4 10.05,143.4 L118.8,143.4 C123.9,143.4 127.95,139.35 127.95,134.25 L127.95,100.35 C127.95,95.25 123.9,91.2 118.8,91.2 Z" id="Path"></path>
        </g>
    </g>
</svg>